<?xml version="1.0" encoding="UTF-8"?>
<svg width="56px" height="56px" viewBox="0 0 56 56" version="1.1" xmlns="http://www.w3.org/2000/svg" xmlns:xlink="http://www.w3.org/1999/xlink">
  <path
    d="M20.65,19.12 L19,18.28 L19,17.38 L25.27,16 L26.2,16 L26.2,25.93 C27.04,24.58 28.69,23.02 31.24,23.02 C34.78,23.02 37.3,25.48 37.3,30.4 C37.3,36.55 33.37,39.79 28.33,39.79 C25.6,39.79 22.6,39.25 20.65,37.72 L20.65,19.12 Z M28.33,38.38 C30.49,38.38 31.66,35.62 31.66,32.08 C31.66,28.12 30.25,26.29 27.97,26.29 C27.34,26.29 26.74,26.44 26.2,26.8 L26.2,35.26 C26.2,37.18 26.74,38.38 28.33,38.38 Z" 
    ></path>
</svg>
