<?xml version="1.0" encoding="UTF-8"?>
<svg width="32px" height="32px" viewBox="0 0 32 32" version="1.1" xmlns="http://www.w3.org/2000/svg" xmlns:xlink="http://www.w3.org/1999/xlink">
  <circle id="mark-highlight" cx="16" cy="16" r="14" stroke="#000" stroke-width="4" fill="none"></circle>
  <circle id="mark-background" cx="16" cy="16" r="10" fill="transparent"></circle>
  <path d="M16,32 C7.163444,32 0,24.836556 0,16 C0,7.163444 7.163444,0 16,0 C24.836556,0 32,7.163444 32,16 C32,24.836556 24.836556,32 16,32 Z M11.9918033,10.704918 L11.9918033,20.8688525 C13.1639344,21.704918 14.9672131,22 16.6081967,22 C19.6377049,22 22,20.2295082 22,16.8688525 C22,14.1803279 20.4852459,12.8360656 18.357377,12.8360656 C16.8245902,12.8360656 15.8327869,13.6885246 15.3278689,14.4262295 L15.3278689,9 L14.7688525,9 L11,9.75409836 L11,10.2459016 L11.9918033,10.704918 Z"></path>
  <path d="M16.6081967,21.2295082 C17.9065574,21.2295082 18.6098361,19.7213115 18.6098361,17.7868852 C18.6098361,15.6229508 17.7622951,14.6229508 16.3918033,14.6229508 C16.0131148,14.6229508 15.652459,14.704918 15.3278689,14.9016393 L15.3278689,19.5245902 C15.3278689,20.5737705 15.652459,21.2295082 16.6081967,21.2295082 Z"></path>
</svg>
